2020-08-06 05:08:06,637 automatically generating lexicon
2020-08-06 05:08:15,808 b'\r  0%|          | 0/859 [00:00<?, ?it/s]\r  1%|          | 10/859 [00:00<00:08, 97.63it/s]\r  2%|\xe2\x96\x8f         | 21/859 [00:00<00:08, 99.44it/s]\r  4%|\xe2\x96\x8e         | 31/859 [00:00<00:08, 99.44it/s]\r  5%|\xe2\x96\x8d         | 42/859 [00:00<00:08, 100.62it/s]\r  6%|\xe2\x96\x8c         | 53/859 [00:00<00:07, 101.55it/s]\r  7%|\xe2\x96\x8b         | 64/859 [00:00<00:07, 102.10it/s]\r  9%|\xe2\x96\x8a         | 74/859 [00:00<00:07, 98.98it/s] \r 10%|\xe2\x96\x89         | 85/859 [00:00<00:07, 99.68it/s]\r 11%|\xe2\x96\x88         | 96/859 [00:00<00:07, 101.83it/s]\r 12%|\xe2\x96\x88\xe2\x96\x8f        | 107/859 [00:01<00:07, 102.65it/s]\r 14%|\xe2\x96\x88\xe2\x96\x8e        | 118/859 [00:01<00:07, 101.95it/s]\r 15%|\xe2\x96\x88\xe2\x96\x8c        | 129/859 [00:01<00:07, 101.60it/s]\r 16%|\xe2\x96\x88\xe2\x96\x8b        | 140/859 [00:01<00:07, 101.30it/s]\r 18%|\xe2\x96\x88\xe2\x96\x8a        | 151/859 [00:01<00:06, 101.31it/s]\r 19%|\xe2\x96\x88\xe2\x96\x89        | 162/859 [00:01<00:06, 102.29it/s]\r 20%|\xe2\x96\x88\xe2\x96\x88        | 173/859 [00:01<00:06, 103.24it/s]\r 21%|\xe2\x96\x88\xe2\x96\x88\xe2\x96\x8f       | 184/859 [00:01<00:06, 104.20it/s]\r 23%|\xe2\x96\x88\xe2\x96\x88\xe2\x96\x8e       | 195/859 [00:01<00:06, 102.92it/s]\r 24%|\xe2\x96\x88\xe2\x96\x88\xe2\x96\x8d       | 206/859 [00:02<00:06, 103.64it/s]\r 25%|\xe2\x96\x88\xe2\x96\x88\xe2\x96\x8c       | 217/859 [00:02<00:06, 102.00it/s]\r 27%|\xe2\x96\x88\xe2\x96\x88\xe2\x96\x8b       | 228/859 [00:02<00:06, 101.19it/s]\r 28%|\xe2\x96\x88\xe2\x96\x88\xe2\x96\x8a       | 239/859 [00:02<00:06, 100.35it/s]\r 29%|\xe2\x96\x88\xe2\x96\x88\xe2\x96\x89       | 250/859 [00:02<00:06, 99.29it/s] \r 30%|\xe2\x96\x88\xe2\x96\x88\xe2\x96\x88       | 261/859 [00:02<00:05, 100.41it/s]\r 32%|\xe2\x96\x88\xe2\x96\x88\xe2\x96\x88\xe2\x96\x8f      | 272/859 [00:02<00:05, 100.43it/s]\r 33%|\xe2\x96\x88\xe2\x96\x88\xe2\x96\x88\xe2\x96\x8e      | 283/859 [00:02<00:05, 100.61it/s]\r 34%|\xe2\x96\x88\xe2\x96\x88\xe2\x96\x88\xe2\x96\x8d      | 294/859 [00:02<00:05, 101.31it/s]\r 36%|\xe2\x96\x88\xe2\x96\x88\xe2\x96\x88\xe2\x96\x8c      | 305/859 [00:03<00:05, 101.46it/s]\r 37%|\xe2\x96\x88\xe2\x96\x88\xe2\x96\x88\xe2\x96\x8b      | 316/859 [00:03<00:05, 102.18it/s]\r 38%|\xe2\x96\x88\xe2\x96\x88\xe2\x96\x88\xe2\x96\x8a      | 327/859 [00:03<00:05, 102.92it/s]\r 39%|\xe2\x96\x88\xe2\x96\x88\xe2\x96\x88\xe2\x96\x89      | 338/859 [00:03<00:05, 103.33it/s]\r 41%|\xe2\x96\x88\xe2\x96\x88\xe2\x96\x88\xe2\x96\x88      | 349/859 [00:03<00:04, 102.43it/s]\r 42%|\xe2\x96\x88\xe2\x96\x88\xe2\x96\x88\xe2\x96\x88\xe2\x96\x8f     | 360/859 [00:03<00:04, 103.24it/s]\r 43%|\xe2\x96\x88\xe2\x96\x88\xe2\x96\x88\xe2\x96\x88\xe2\x96\x8e     | 371/859 [00:03<00:04, 103.15it/s]\r 44%|\xe2\x96\x88\xe2\x96\x88\xe2\x96\x88\xe2\x96\x88\xe2\x96\x8d     | 382/859 [00:03<00:04, 104.35it/s]\r 46%|\xe2\x96\x88\xe2\x96\x88\xe2\x96\x88\xe2\x96\x88\xe2\x96\x8c     | 393/859 [00:03<00:04, 104.76it/s]\r 47%|\xe2\x96\x88\xe2\x96\x88\xe2\x96\x88\xe2\x96\x88\xe2\x96\x8b     | 404/859 [00:03<00:04, 103.79it/s]\r 48%|\xe2\x96\x88\xe2\x96\x88\xe2\x96\x88\xe2\x96\x88\xe2\x96\x8a     | 415/859 [00:04<00:04, 105.05it/s]\r 50%|\xe2\x96\x88\xe2\x96\x88\xe2\x96\x88\xe2\x96\x88\xe2\x96\x89     | 426/859 [00:04<00:04, 104.14it/s]\r 51%|\xe2\x96\x88\xe2\x96\x88\xe2\x96\x88\xe2\x96\x88\xe2\x96\x88     | 437/859 [00:04<00:04, 104.58it/s]\r 52%|\xe2\x96\x88\xe2\x96\x88\xe2\x96\x88\xe2\x96\x88\xe2\x96\x88\xe2\x96\x8f    | 448/859 [00:04<00:03, 104.53it/s]\r 53%|\xe2\x96\x88\xe2\x96\x88\xe2\x96\x88\xe2\x96\x88\xe2\x96\x88\xe2\x96\x8e    | 459/859 [00:04<00:03, 103.37it/s]\r 55%|\xe2\x96\x88\xe2\x96\x88\xe2\x96\x88\xe2\x96\x88\xe2\x96\x88\xe2\x96\x8d    | 470/859 [00:04<00:03, 101.37it/s]\r 56%|\xe2\x96\x88\xe2\x96\x88\xe2\x96\x88\xe2\x96\x88\xe2\x96\x88\xe2\x96\x8c    | 481/859 [00:04<00:03, 101.83it/s]\r 57%|\xe2\x96\x88\xe2\x96\x88\xe2\x96\x88\xe2\x96\x88\xe2\x96\x88\xe2\x96\x8b    | 492/859 [00:04<00:03, 102.61it/s]\r 59%|\xe2\x96\x88\xe2\x96\x88\xe2\x96\x88\xe2\x96\x88\xe2\x96\x88\xe2\x96\x8a    | 503/859 [00:04<00:03, 103.27it/s]\r 60%|\xe2\x96\x88\xe2\x96\x88\xe2\x96\x88\xe2\x96\x88\xe2\x96\x88\xe2\x96\x89    | 514/859 [00:05<00:03, 103.08it/s]\r 61%|\xe2\x96\x88\xe2\x96\x88\xe2\x96\x88\xe2\x96\x88\xe2\x96\x88\xe2\x96\x88    | 525/859 [00:05<00:03, 103.74it/s]\r 62%|\xe2\x96\x88\xe2\x96\x88\xe2\x96\x88\xe2\x96\x88\xe2\x96\x88\xe2\x96\x88\xe2\x96\x8f   | 536/859 [00:05<00:03, 104.58it/s]\r 64%|\xe2\x96\x88\xe2\x96\x88\xe2\x96\x88\xe2\x96\x88\xe2\x96\x88\xe2\x96\x88\xe2\x96\x8e   | 547/859 [00:05<00:03, 103.98it/s]\r 65%|\xe2\x96\x88\xe2\x96\x88\xe2\x96\x88\xe2\x96\x88\xe2\x96\x88\xe2\x96\x88\xe2\x96\x8d   | 558/859 [00:05<00:02, 104.33it/s]\r 66%|\xe2\x96\x88\xe2\x96\x88\xe2\x96\x88\xe2\x96\x88\xe2\x96\x88\xe2\x96\x88\xe2\x96\x8c   | 569/859 [00:05<00:02, 104.80it/s]\r 68%|\xe2\x96\x88\xe2\x96\x88\xe2\x96\x88\xe2\x96\x88\xe2\x96\x88\xe2\x96\x88\xe2\x96\x8a   | 580/859 [00:05<00:02, 101.11it/s]\r 69%|\xe2\x96\x88\xe2\x96\x88\xe2\x96\x88\xe2\x96\x88\xe2\x96\x88\xe2\x96\x88\xe2\x96\x89   | 591/859 [00:05<00:02, 100.22it/s]\r 70%|\xe2\x96\x88\xe2\x96\x88\xe2\x96\x88\xe2\x96\x88\xe2\x96\x88\xe2\x96\x88\xe2\x96\x88   | 602/859 [00:05<00:02, 98.85it/s] \r 71%|\xe2\x96\x88\xe2\x96\x88\xe2\x96\x88\xe2\x96\x88\xe2\x96\x88\xe2\x96\x88\xe2\x96\x88   | 612/859 [00:05<00:02, 96.58it/s]\r 73%|\xe2\x96\x88\xe2\x96\x88\xe2\x96\x88\xe2\x96\x88\xe2\x96\x88\xe2\x96\x88\xe2\x96\x88\xe2\x96\x8e  | 623/859 [00:06<00:02, 97.27it/s]\r 74%|\xe2\x96\x88\xe2\x96\x88\xe2\x96\x88\xe2\x96\x88\xe2\x96\x88\xe2\x96\x88\xe2\x96\x88\xe2\x96\x8d  | 634/859 [00:06<00:02, 98.80it/s]\r 75%|\xe2\x96\x88\xe2\x96\x88\xe2\x96\x88\xe2\x96\x88\xe2\x96\x88\xe2\x96\x88\xe2\x96\x88\xe2\x96\x8c  | 645/859 [00:06<00:02, 101.43it/s]\r 76%|\xe2\x96\x88\xe2\x96\x88\xe2\x96\x88\xe2\x96\x88\xe2\x96\x88\xe2\x96\x88\xe2\x96\x88\xe2\x96\x8b  | 656/859 [00:06<00:02, 101.26it/s]\r 78%|\xe2\x96\x88\xe2\x96\x88\xe2\x96\x88\xe2\x96\x88\xe2\x96\x88\xe2\x96\x88\xe2\x96\x88\xe2\x96\x8a  | 667/859 [00:06<00:01, 100.59it/s]\r 79%|\xe2\x96\x88\xe2\x96\x88\xe2\x96\x88\xe2\x96\x88\xe2\x96\x88\xe2\x96\x88\xe2\x96\x88\xe2\x96\x89  | 678/859 [00:06<00:01, 100.43it/s]\r 80%|\xe2\x96\x88\xe2\x96\x88\xe2\x96\x88\xe2\x96\x88\xe2\x96\x88\xe2\x96\x88\xe2\x96\x88\xe2\x96\x88  | 689/859 [00:06<00:01, 100.91it/s]\r 81%|\xe2\x96\x88\xe2\x96\x88\xe2\x96\x88\xe2\x96\x88\xe2\x96\x88\xe2\x96\x88\xe2\x96\x88\xe2\x96\x88\xe2\x96\x8f | 700/859 [00:06<00:01, 101.27it/s]\r 83%|\xe2\x96\x88\xe2\x96\x88\xe2\x96\x88\xe2\x96\x88\xe2\x96\x88\xe2\x96\x88\xe2\x96\x88\xe2\x96\x88\xe2\x96\x8e | 711/859 [00:06<00:01, 101.83it/s]\r 84%|\xe2\x96\x88\xe2\x96\x88\xe2\x96\x88\xe2\x96\x88\xe2\x96\x88\xe2\x96\x88\xe2\x96\x88\xe2\x96\x88\xe2\x96\x8d | 722/859 [00:07<00:01, 101.20it/s]\r 85%|\xe2\x96\x88\xe2\x96\x88\xe2\x96\x88\xe2\x96\x88\xe2\x96\x88\xe2\x96\x88\xe2\x96\x88\xe2\x96\x88\xe2\x96\x8c | 733/859 [00:07<00:01, 101.66it/s]\r 87%|\xe2\x96\x88\xe2\x96\x88\xe2\x96\x88\xe2\x96\x88\xe2\x96\x88\xe2\x96\x88\xe2\x96\x88\xe2\x96\x88\xe2\x96\x8b | 744/859 [00:07<00:01, 101.93it/s]\r 88%|\xe2\x96\x88\xe2\x96\x88\xe2\x96\x88\xe2\x96\x88\xe2\x96\x88\xe2\x96\x88\xe2\x96\x88\xe2\x96\x88\xe2\x96\x8a | 755/859 [00:07<00:01, 100.19it/s]\r 89%|\xe2\x96\x88\xe2\x96\x88\xe2\x96\x88\xe2\x96\x88\xe2\x96\x88\xe2\x96\x88\xe2\x96\x88\xe2\x96\x88\xe2\x96\x89 | 766/859 [00:07<00:00, 100.57it/s]\r 90%|\xe2\x96\x88\xe2\x96\x88\xe2\x96\x88\xe2\x96\x88\xe2\x96\x88\xe2\x96\x88\xe2\x96\x88\xe2\x96\x88\xe2\x96\x88 | 777/859 [00:07<00:00, 101.51it/s]\r 92%|\xe2\x96\x88\xe2\x96\x88\xe2\x96\x88\xe2\x96\x88\xe2\x96\x88\xe2\x96\x88\xe2\x96\x88\xe2\x96\x88\xe2\x96\x88\xe2\x96\x8f| 788/859 [00:07<00:00, 100.33it/s]\r 93%|\xe2\x96\x88\xe2\x96\x88\xe2\x96\x88\xe2\x96\x88\xe2\x96\x88\xe2\x96\x88\xe2\x96\x88\xe2\x96\x88\xe2\x96\x88\xe2\x96\x8e| 799/859 [00:07<00:00, 101.80it/s]\r 94%|\xe2\x96\x88\xe2\x96\x88\xe2\x96\x88\xe2\x96\x88\xe2\x96\x88\xe2\x96\x88\xe2\x96\x88\xe2\x96\x88\xe2\x96\x88\xe2\x96\x8d| 810/859 [00:07<00:00, 101.86it/s]\r 96%|\xe2\x96\x88\xe2\x96\x88\xe2\x96\x88\xe2\x96\x88\xe2\x96\x88\xe2\x96\x88\xe2\x96\x88\xe2\x96\x88\xe2\x96\x88\xe2\x96\x8c| 821/859 [00:08<00:00, 103.97it/s]\r 97%|\xe2\x96\x88\xe2\x96\x88\xe2\x96\x88\xe2\x96\x88\xe2\x96\x88\xe2\x96\x88\xe2\x96\x88\xe2\x96\x88\xe2\x96\x88\xe2\x96\x8b| 832/859 [00:08<00:00, 102.71it/s]\r 98%|\xe2\x96\x88\xe2\x96\x88\xe2\x96\x88\xe2\x96\x88\xe2\x96\x88\xe2\x96\x88\xe2\x96\x88\xe2\x96\x88\xe2\x96\x88\xe2\x96\x8a| 843/859 [00:08<00:00, 103.07it/s]\r 99%|\xe2\x96\x88\xe2\x96\x88\xe2\x96\x88\xe2\x96\x88\xe2\x96\x88\xe2\x96\x88\xe2\x96\x88\xe2\x96\x88\xe2\x96\x88\xe2\x96\x89| 854/859 [00:08<00:00, 101.92it/s]\r100%|\xe2\x96\x88\xe2\x96\x88\xe2\x96\x88\xe2\x96\x88\xe2\x96\x88\xe2\x96\x88\xe2\x96\x88\xe2\x96\x88\xe2\x96\x88\xe2\x96\x88| 859/859 [00:08<00:00, 101.94it/s]\n'
2020-08-06 05:08:17,103 b'\r  0%|          | 0/64 [00:00<?, ?it/s]\r 16%|\xe2\x96\x88\xe2\x96\x8c        | 10/64 [00:00<00:00, 92.20it/s]\r 33%|\xe2\x96\x88\xe2\x96\x88\xe2\x96\x88\xe2\x96\x8e      | 21/64 [00:00<00:00, 95.98it/s]\r 50%|\xe2\x96\x88\xe2\x96\x88\xe2\x96\x88\xe2\x96\x88\xe2\x96\x88     | 32/64 [00:00<00:00, 98.76it/s]\r 67%|\xe2\x96\x88\xe2\x96\x88\xe2\x96\x88\xe2\x96\x88\xe2\x96\x88\xe2\x96\x88\xe2\x96\x8b   | 43/64 [00:00<00:00, 100.53it/s]\r 84%|\xe2\x96\x88\xe2\x96\x88\xe2\x96\x88\xe2\x96\x88\xe2\x96\x88\xe2\x96\x88\xe2\x96\x88\xe2\x96\x88\xe2\x96\x8d | 54/64 [00:00<00:00, 102.94it/s]\r100%|\xe2\x96\x88\xe2\x96\x88\xe2\x96\x88\xe2\x96\x88\xe2\x96\x88\xe2\x96\x88\xe2\x96\x88\xe2\x96\x88\xe2\x96\x88\xe2\x96\x88| 64/64 [00:00<00:00, 104.38it/s]\n'
2020-08-06 05:08:45,686 b"Input #0, mov,mp4,m4a,3gp,3g2,mj2, from '/testdatahdd/datasets/ujjivan/voicecollectionblobcontainer/1564213141_107_146.mp3':\n  Metadata:\n    major_brand     : 3gp4\n    minor_version   : 0\n    compatible_brands: isom3gp4\n    creation_time   : 2019-07-27T07:38:53.000000Z\n    com.android.version: 8.1.0\n  Duration: 00:00:02.62, start: 0.000000, bitrate: 105 kb/s\n    Stream #0:0(eng): Audio: aac (LC) (mp4a / 0x6134706D), 16000 Hz, mono, fltp, 96 kb/s (default)\n    Metadata:\n      creation_time   : 2019-07-27T07:38:53.000000Z\n      handler_name    : SoundHandle\nStream mapping:\n  Stream #0:0 -> #0:0 (aac (native) -> pcm_s16le (native))\nPress [q] to stop, [?] for help\nOutput #0, wav, to '/testdatahdd/datasets/ujjivan/wavs/ta/1564213141_107_146.temp.wav':\n  Metadata:\n    major_brand     : 3gp4\n    minor_version   : 0\n    compatible_brands: isom3gp4\n    com.android.version: 8.1.0\n    ISFT            : Lavf57.83.100\n    Stream #0:0(eng): Audio: pcm_s16le ([1][0][0][0] / 0x0001), 16000 Hz, mono, s16, 256 kb/s (default)\n    Metadata:\n      creation_time   : 2019-07-27T07:38:53.000000Z\n      handler_name    : SoundHandle\n      encoder         : Lavc57.107.100 pcm_s16le\nsize=      82kB time=00:00:02.62 bitrate= 256.2kbits/s speed=1.07e+03x    \nvideo:0kB audio:82kB subtitle:0kB other streams:0kB global headers:0kB muxing overhead: 0.092893%\n"
2020-08-06 05:08:48,032 b"Input #0, mov,mp4,m4a,3gp,3g2,mj2, from '/testdatahdd/datasets/ujjivan/voicecollectionblobcontainer/1564313867_110_146.mp3':\n  Metadata:\n    major_brand     : 3gp4\n    minor_version   : 0\n    compatible_brands: isom3gp4\n    creation_time   : 2019-07-28T11:37:36.000000Z\n    com.android.version: 8.0.0\n  Duration: 00:00:03.20, start: 0.000000, bitrate: 104 kb/s\n    Stream #0:0(eng): Audio: aac (LC) (mp4a / 0x6134706D), 16000 Hz, mono, fltp, 96 kb/s (default)\n    Metadata:\n      creation_time   : 2019-07-28T11:37:36.000000Z\n      handler_name    : SoundHandle\nStream mapping:\n  Stream #0:0 -> #0:0 (aac (native) -> pcm_s16le (native))\nPress [q] to stop, [?] for help\nOutput #0, wav, to '/testdatahdd/datasets/ujjivan/wavs/ta/1564313867_110_146.temp.wav':\n  Metadata:\n    major_brand     : 3gp4\n    minor_version   : 0\n    compatible_brands: isom3gp4\n    com.android.version: 8.0.0\n    ISFT            : Lavf57.83.100\n    Stream #0:0(eng): Audio: pcm_s16le ([1][0][0][0] / 0x0001), 16000 Hz, mono, s16, 256 kb/s (default)\n    Metadata:\n      creation_time   : 2019-07-28T11:37:36.000000Z\n      handler_name    : SoundHandle\n      encoder         : Lavc57.107.100 pcm_s16le\nsize=     100kB time=00:00:03.20 bitrate= 256.2kbits/s speed=1.14e+03x    \nvideo:0kB audio:100kB subtitle:0kB other streams:0kB global headers:0kB muxing overhead: 0.076172%\n"
2020-08-06 05:08:48,497 b"Input #0, mov,mp4,m4a,3gp,3g2,mj2, from '/testdatahdd/datasets/ujjivan/voicecollectionblobcontainer/1564139151_117_146.mp3':\n  Metadata:\n    major_brand     : 3gp4\n    minor_version   : 0\n    compatible_brands: isom3gp4\n    creation_time   : 2019-07-26T11:05:44.000000Z\n    com.android.version: 8.1.0\n  Duration: 00:00:02.69, start: 0.000000, bitrate: 98 kb/s\n    Stream #0:0(eng): Audio: aac (LC) (mp4a / 0x6134706D), 16000 Hz, mono, fltp, 96 kb/s (default)\n    Metadata:\n      creation_time   : 2019-07-26T11:05:44.000000Z\n      handler_name    : SoundHandle\nStream mapping:\n  Stream #0:0 -> #0:0 (aac (native) -> pcm_s16le (native))\nPress [q] to stop, [?] for help\nOutput #0, wav, to '/testdatahdd/datasets/ujjivan/wavs/ta/1564139151_117_146.temp.wav':\n  Metadata:\n    major_brand     : 3gp4\n    minor_version   : 0\n    compatible_brands: isom3gp4\n    com.android.version: 8.1.0\n    ISFT            : Lavf57.83.100\n    Stream #0:0(eng): Audio: pcm_s16le ([1][0][0][0] / 0x0001), 16000 Hz, mono, s16, 256 kb/s (default)\n    Metadata:\n      creation_time   : 2019-07-26T11:05:44.000000Z\n      handler_name    : SoundHandle\n      encoder         : Lavc57.107.100 pcm_s16le\nsize=      84kB time=00:00:02.68 bitrate= 256.2kbits/s speed=1.11e+03x    \nvideo:0kB audio:84kB subtitle:0kB other streams:0kB global headers:0kB muxing overhead: 0.090681%\n"
2020-08-06 05:08:49,119 b'[mov,mp4,m4a,3gp,3g2,mj2 @ 0x55561afd5940] moov atom not found\n/testdatahdd/datasets/ujjivan/voicecollectionblobcontainer/1564488976_117_485.mp3: Invalid data found when processing input\n'
2020-08-06 05:08:49,127 b"rm: cannot remove '/testdatahdd/datasets/ujjivan/wavs/ta/1564488976_117_485.temp.wav': No such file or directory\n"
2020-08-06 05:08:49,128 b"sox FAIL formats: can't open input file `/testdatahdd/datasets/ujjivan/wavs/ta/1564488976_117_485.temp.wav': No such file or directory\n"
2020-08-06 05:08:49,196 b'[mov,mp4,m4a,3gp,3g2,mj2 @ 0x55aed2a87940] moov atom not found\n/testdatahdd/datasets/ujjivan/voicecollectionblobcontainer/1564488979_117_485.mp3: Invalid data found when processing input\n'
2020-08-06 05:08:49,204 b"rm: cannot remove '/testdatahdd/datasets/ujjivan/wavs/ta/1564488979_117_485.temp.wav': No such file or directory\n"
2020-08-06 05:08:49,204 b"sox FAIL formats: can't open input file `/testdatahdd/datasets/ujjivan/wavs/ta/1564488979_117_485.temp.wav': No such file or directory\n"
2020-08-06 05:08:50,969 b"Input #0, mov,mp4,m4a,3gp,3g2,mj2, from '/testdatahdd/datasets/ujjivan/voicecollectionblobcontainer/1564031290_118_146.mp3':\n  Metadata:\n    major_brand     : 3gp4\n    minor_version   : 0\n    compatible_brands: isom3gp4\n    creation_time   : 2019-07-25T05:08:04.000000Z\n    com.android.version: 8.1.0\n  Duration: 00:00:02.30, start: 0.000000, bitrate: 118 kb/s\n    Stream #0:0(eng): Audio: aac (LC) (mp4a / 0x6134706D), 16000 Hz, mono, fltp, 96 kb/s (default)\n    Metadata:\n      creation_time   : 2019-07-25T05:08:04.000000Z\n      handler_name    : SoundHandle\nStream mapping:\n  Stream #0:0 -> #0:0 (aac (native) -> pcm_s16le (native))\nPress [q] to stop, [?] for help\nOutput #0, wav, to '/testdatahdd/datasets/ujjivan/wavs/ta/1564031290_118_146.temp.wav':\n  Metadata:\n    major_brand     : 3gp4\n    minor_version   : 0\n    compatible_brands: isom3gp4\n    com.android.version: 8.1.0\n    ISFT            : Lavf57.83.100\n    Stream #0:0(eng): Audio: pcm_s16le ([1][0][0][0] / 0x0001), 16000 Hz, mono, s16, 256 kb/s (default)\n    Metadata:\n      creation_time   : 2019-07-25T05:08:04.000000Z\n      handler_name    : SoundHandle\n      encoder         : Lavc57.107.100 pcm_s16le\nsize=      72kB time=00:00:02.30 bitrate= 256.3kbits/s speed= 997x    \nvideo:0kB audio:72kB subtitle:0kB other streams:0kB global headers:0kB muxing overhead: 0.105794%\n"
2020-08-06 05:08:51,572 b"Input #0, mov,mp4,m4a,3gp,3g2,mj2, from '/testdatahdd/datasets/ujjivan/voicecollectionblobcontainer/1564217702_119_146.mp3':\n  Metadata:\n    major_brand     : 3gp4\n    minor_version   : 0\n    compatible_brands: isom3gp4\n    creation_time   : 2019-07-27T08:55:12.000000Z\n    com.android.version: 9\n  Duration: 00:00:03.33, start: 0.000000, bitrate: 103 kb/s\n    Stream #0:0(eng): Audio: aac (LC) (mp4a / 0x6134706D), 16000 Hz, mono, fltp, 96 kb/s (default)\n    Metadata:\n      creation_time   : 2019-07-27T08:55:12.000000Z\n      handler_name    : SoundHandle\nStream mapping:\n  Stream #0:0 -> #0:0 (aac (native) -> pcm_s16le (native))\nPress [q] to stop, [?] for help\nOutput #0, wav, to '/testdatahdd/datasets/ujjivan/wavs/ta/1564217702_119_146.temp.wav':\n  Metadata:\n    major_brand     : 3gp4\n    minor_version   : 0\n    compatible_brands: isom3gp4\n    com.android.version: 9\n    ISFT            : Lavf57.83.100\n    Stream #0:0(eng): Audio: pcm_s16le ([1][0][0][0] / 0x0001), 16000 Hz, mono, s16, 256 kb/s (default)\n    Metadata:\n      creation_time   : 2019-07-27T08:55:12.000000Z\n      handler_name    : SoundHandle\n      encoder         : Lavc57.107.100 pcm_s16le\nsize=     104kB time=00:00:03.32 bitrate= 256.2kbits/s speed=1.21e+03x    \nvideo:0kB audio:104kB subtitle:0kB other streams:0kB global headers:0kB muxing overhead: 0.073242%\n"
2020-08-06 05:08:53,822 b"Input #0, mov,mp4,m4a,3gp,3g2,mj2, from '/testdatahdd/datasets/ujjivan/voicecollectionblobcontainer/1564122646_125_146.mp3':\n  Metadata:\n    major_brand     : 3gp4\n    minor_version   : 0\n    compatible_brands: isom3gp4\n    creation_time   : 2019-07-26T06:30:37.000000Z\n    com.android.version: 7.0\n  Duration: 00:00:03.01, start: 0.000000, bitrate: 98 kb/s\n    Stream #0:0(eng): Audio: aac (LC) (mp4a / 0x6134706D), 16000 Hz, mono, fltp, 96 kb/s (default)\n    Metadata:\n      creation_time   : 2019-07-26T06:30:37.000000Z\n      handler_name    : SoundHandle\nStream mapping:\n  Stream #0:0 -> #0:0 (aac (native) -> pcm_s16le (native))\nPress [q] to stop, [?] for help\nOutput #0, wav, to '/testdatahdd/datasets/ujjivan/wavs/ta/1564122646_125_146.temp.wav':\n  Metadata:\n    major_brand     : 3gp4\n    minor_version   : 0\n    compatible_brands: isom3gp4\n    com.android.version: 7.0\n    ISFT            : Lavf57.83.100\n    Stream #0:0(eng): Audio: pcm_s16le ([1][0][0][0] / 0x0001), 16000 Hz, mono, s16, 256 kb/s (default)\n    Metadata:\n      creation_time   : 2019-07-26T06:30:37.000000Z\n      handler_name    : SoundHandle\n      encoder         : Lavc57.107.100 pcm_s16le\nsize=      94kB time=00:00:03.00 bitrate= 256.2kbits/s speed=1.19e+03x    \nvideo:0kB audio:94kB subtitle:0kB other streams:0kB global headers:0kB muxing overhead: 0.081034%\n"
2020-08-06 05:08:55,890 b"Input #0, mov,mp4,m4a,3gp,3g2,mj2, from '/testdatahdd/datasets/ujjivan/voicecollectionblobcontainer/1564386779_129_146.mp3':\n  Metadata:\n    major_brand     : 3gp4\n    minor_version   : 0\n    compatible_brands: isom3gp4\n    creation_time   : 2019-07-29T07:52:51.000000Z\n    com.android.version: 8.1.0\n  Duration: 00:00:02.62, start: 0.000000, bitrate: 105 kb/s\n    Stream #0:0(eng): Audio: aac (LC) (mp4a / 0x6134706D), 16000 Hz, mono, fltp, 96 kb/s (default)\n    Metadata:\n      creation_time   : 2019-07-29T07:52:51.000000Z\n      handler_name    : SoundHandle\nStream mapping:\n  Stream #0:0 -> #0:0 (aac (native) -> pcm_s16le (native))\nPress [q] to stop, [?] for help\nOutput #0, wav, to '/testdatahdd/datasets/ujjivan/wavs/ta/1564386779_129_146.temp.wav':\n  Metadata:\n    major_brand     : 3gp4\n    minor_version   : 0\n    compatible_brands: isom3gp4\n    com.android.version: 8.1.0\n    ISFT            : Lavf57.83.100\n    Stream #0:0(eng): Audio: pcm_s16le ([1][0][0][0] / 0x0001), 16000 Hz, mono, s16, 256 kb/s (default)\n    Metadata:\n      creation_time   : 2019-07-29T07:52:51.000000Z\n      handler_name    : SoundHandle\n      encoder         : Lavc57.107.100 pcm_s16le\nsize=      82kB time=00:00:02.62 bitrate= 256.2kbits/s speed=1.09e+03x    \nvideo:0kB audio:82kB subtitle:0kB other streams:0kB global headers:0kB muxing overhead: 0.092893%\n"
2020-08-06 05:08:56,903 b"Input #0, mov,mp4,m4a,3gp,3g2,mj2, from '/testdatahdd/datasets/ujjivan/voicecollectionblobcontainer/1568300479_136_146.mp3':\n  Metadata:\n    major_brand     : 3gp4\n    minor_version   : 0\n    compatible_brands: isom3gp4\n    creation_time   : 2019-09-12T15:01:12.000000Z\n    com.android.version: 7.0\n  Duration: 00:00:02.69, start: 0.000000, bitrate: 105 kb/s\n    Stream #0:0(eng): Audio: aac (LC) (mp4a / 0x6134706D), 16000 Hz, mono, fltp, 96 kb/s (default)\n    Metadata:\n      creation_time   : 2019-09-12T15:01:12.000000Z\n      handler_name    : SoundHandle\nStream mapping:\n  Stream #0:0 -> #0:0 (aac (native) -> pcm_s16le (native))\nPress [q] to stop, [?] for help\nOutput #0, wav, to '/testdatahdd/datasets/ujjivan/wavs/ta/1568300479_136_146.temp.wav':\n  Metadata:\n    major_brand     : 3gp4\n    minor_version   : 0\n    compatible_brands: isom3gp4\n    com.android.version: 7.0\n    ISFT            : Lavf57.83.100\n    Stream #0:0(eng): Audio: pcm_s16le ([1][0][0][0] / 0x0001), 16000 Hz, mono, s16, 256 kb/s (default)\n    Metadata:\n      creation_time   : 2019-09-12T15:01:12.000000Z\n      handler_name    : SoundHandle\n      encoder         : Lavc57.107.100 pcm_s16le\nsize=      84kB time=00:00:02.68 bitrate= 256.2kbits/s speed=1.02e+03x    \nvideo:0kB audio:84kB subtitle:0kB other streams:0kB global headers:0kB muxing overhead: 0.090681%\n"
2020-08-06 05:08:58,675 b"Input #0, mov,mp4,m4a,3gp,3g2,mj2, from '/testdatahdd/datasets/ujjivan/voicecollectionblobcontainer/1567094026_137_146.mp3':\n  Metadata:\n    major_brand     : 3gp4\n    minor_version   : 0\n    compatible_brands: isom3gp4\n    creation_time   : 2019-08-29T15:56:35.000000Z\n    com.android.version: 9\n  Duration: 00:00:04.86, start: 0.000000, bitrate: 97 kb/s\n    Stream #0:0(eng): Audio: aac (LC) (mp4a / 0x6134706D), 16000 Hz, mono, fltp, 96 kb/s (default)\n    Metadata:\n      creation_time   : 2019-08-29T15:56:35.000000Z\n      handler_name    : SoundHandle\nStream mapping:\n  Stream #0:0 -> #0:0 (aac (native) -> pcm_s16le (native))\nPress [q] to stop, [?] for help\nOutput #0, wav, to '/testdatahdd/datasets/ujjivan/wavs/ta/1567094026_137_146.temp.wav':\n  Metadata:\n    major_brand     : 3gp4\n    minor_version   : 0\n    compatible_brands: isom3gp4\n    com.android.version: 9\n    ISFT            : Lavf57.83.100\n    Stream #0:0(eng): Audio: pcm_s16le ([1][0][0][0] / 0x0001), 16000 Hz, mono, s16, 256 kb/s (default)\n    Metadata:\n      creation_time   : 2019-08-29T15:56:35.000000Z\n      handler_name    : SoundHandle\n      encoder         : Lavc57.107.100 pcm_s16le\nsize=     152kB time=00:00:04.86 bitrate= 256.1kbits/s speed=1.41e+03x    \nvideo:0kB audio:152kB subtitle:0kB other streams:0kB global headers:0kB muxing overhead: 0.050113%\n"
2020-08-06 05:08:59,261 b"Input #0, mov,mp4,m4a,3gp,3g2,mj2, from '/testdatahdd/datasets/ujjivan/voicecollectionblobcontainer/1566974846_139_146.mp3':\n  Metadata:\n    major_brand     : 3gp4\n    minor_version   : 0\n    compatible_brands: isom3gp4\n    creation_time   : 2019-08-28T06:46:48.000000Z\n    com.android.version: 9\n  Duration: 00:00:03.52, start: 0.000000, bitrate: 97 kb/s\n    Stream #0:0(eng): Audio: aac (LC) (mp4a / 0x6134706D), 16000 Hz, mono, fltp, 96 kb/s (default)\n    Metadata:\n      creation_time   : 2019-08-28T06:46:48.000000Z\n      handler_name    : SoundHandle\nStream mapping:\n  Stream #0:0 -> #0:0 (aac (native) -> pcm_s16le (native))\nPress [q] to stop, [?] for help\nOutput #0, wav, to '/testdatahdd/datasets/ujjivan/wavs/ta/1566974846_139_146.temp.wav':\n  Metadata:\n    major_brand     : 3gp4\n    minor_version   : 0\n    compatible_brands: isom3gp4\n    com.android.version: 9\n    ISFT            : Lavf57.83.100\n    Stream #0:0(eng): Audio: pcm_s16le ([1][0][0][0] / 0x0001), 16000 Hz, mono, s16, 256 kb/s (default)\n    Metadata:\n      creation_time   : 2019-08-28T06:46:48.000000Z\n      handler_name    : SoundHandle\n      encoder         : Lavc57.107.100 pcm_s16le\nsize=     110kB time=00:00:03.52 bitrate= 256.2kbits/s speed=1.33e+03x    \nvideo:0kB audio:110kB subtitle:0kB other streams:0kB global headers:0kB muxing overhead: 0.069247%\n"
2020-08-06 05:09:01,969 b"Input #0, mov,mp4,m4a,3gp,3g2,mj2, from '/testdatahdd/datasets/ujjivan/voicecollectionblobcontainer/1566627197_141_146.mp3':\n  Metadata:\n    major_brand     : 3gp4\n    minor_version   : 0\n    compatible_brands: isom3gp4\n    creation_time   : 2019-08-24T06:13:01.000000Z\n    com.android.version: 7.0\n  Duration: 00:00:01.79, start: 0.000000, bitrate: 99 kb/s\n    Stream #0:0(eng): Audio: aac (LC) (mp4a / 0x6134706D), 16000 Hz, mono, fltp, 96 kb/s (default)\n    Metadata:\n      creation_time   : 2019-08-24T06:13:01.000000Z\n      handler_name    : SoundHandle\nStream mapping:\n  Stream #0:0 -> #0:0 (aac (native) -> pcm_s16le (native))\nPress [q] to stop, [?] for help\nOutput #0, wav, to '/testdatahdd/datasets/ujjivan/wavs/ta/1566627197_141_146.temp.wav':\n  Metadata:\n    major_brand     : 3gp4\n    minor_version   : 0\n    compatible_brands: isom3gp4\n    com.android.version: 7.0\n    ISFT            : Lavf57.83.100\n    Stream #0:0(eng): Audio: pcm_s16le ([1][0][0][0] / 0x0001), 16000 Hz, mono, s16, 256 kb/s (default)\n    Metadata:\n      creation_time   : 2019-08-24T06:13:01.000000Z\n      handler_name    : SoundHandle\n      encoder         : Lavc57.107.100 pcm_s16le\nsize=      56kB time=00:00:01.79 bitrate= 256.3kbits/s speed= 907x    \nvideo:0kB audio:56kB subtitle:0kB other streams:0kB global headers:0kB muxing overhead: 0.136021%\n"
2020-08-06 05:09:03,115 b"Input #0, mov,mp4,m4a,3gp,3g2,mj2, from '/testdatahdd/datasets/ujjivan/voicecollectionblobcontainer/1566968950_143_146.mp3':\n  Metadata:\n    major_brand     : 3gp4\n    minor_version   : 0\n    compatible_brands: isom3gp4\n    creation_time   : 2019-08-28T05:09:02.000000Z\n    com.android.version: 8.1.0\n  Duration: 00:00:03.20, start: 0.000000, bitrate: 104 kb/s\n    Stream #0:0(eng): Audio: aac (LC) (mp4a / 0x6134706D), 16000 Hz, mono, fltp, 96 kb/s (default)\n    Metadata:\n      creation_time   : 2019-08-28T05:09:02.000000Z\n      handler_name    : SoundHandle\nStream mapping:\n  Stream #0:0 -> #0:0 (aac (native) -> pcm_s16le (native))\nPress [q] to stop, [?] for help\nOutput #0, wav, to '/testdatahdd/datasets/ujjivan/wavs/ta/1566968950_143_146.temp.wav':\n  Metadata:\n    major_brand     : 3gp4\n    minor_version   : 0\n    compatible_brands: isom3gp4\n    com.android.version: 8.1.0\n    ISFT            : Lavf57.83.100\n    Stream #0:0(eng): Audio: pcm_s16le ([1][0][0][0] / 0x0001), 16000 Hz, mono, s16, 256 kb/s (default)\n    Metadata:\n      creation_time   : 2019-08-28T05:09:02.000000Z\n      handler_name    : SoundHandle\n      encoder         : Lavc57.107.100 pcm_s16le\nsize=     100kB time=00:00:03.20 bitrate= 256.2kbits/s speed=1.08e+03x    \nvideo:0kB audio:100kB subtitle:0kB other streams:0kB global headers:0kB muxing overhead: 0.076172%\n"
2020-08-06 05:09:05,193 b"Input #0, mov,mp4,m4a,3gp,3g2,mj2, from '/testdatahdd/datasets/ujjivan/voicecollectionblobcontainer/1566746700_144_146.mp3':\n  Metadata:\n    major_brand     : 3gp4\n    minor_version   : 0\n    compatible_brands: isom3gp4\n    creation_time   : 2019-08-25T15:24:49.000000Z\n    com.android.version: 8.1.0\n  Duration: 00:00:03.39, start: 0.000000, bitrate: 103 kb/s\n    Stream #0:0(eng): Audio: aac (LC) (mp4a / 0x6134706D), 16000 Hz, mono, fltp, 96 kb/s (default)\n    Metadata:\n      creation_time   : 2019-08-25T15:24:49.000000Z\n      handler_name    : SoundHandle\nStream mapping:\n  Stream #0:0 -> #0:0 (aac (native) -> pcm_s16le (native))\nPress [q] to stop, [?] for help\nOutput #0, wav, to '/testdatahdd/datasets/ujjivan/wavs/ta/1566746700_144_146.temp.wav':\n  Metadata:\n    major_brand     : 3gp4\n    minor_version   : 0\n    compatible_brands: isom3gp4\n    com.android.version: 8.1.0\n    ISFT            : Lavf57.83.100\n    Stream #0:0(eng): Audio: pcm_s16le ([1][0][0][0] / 0x0001), 16000 Hz, mono, s16, 256 kb/s (default)\n    Metadata:\n      creation_time   : 2019-08-25T15:24:49.000000Z\n      handler_name    : SoundHandle\n      encoder         : Lavc57.107.100 pcm_s16le\nsize=     106kB time=00:00:03.39 bitrate= 256.2kbits/s speed=1.22e+03x    \nvideo:0kB audio:106kB subtitle:0kB other streams:0kB global headers:0kB muxing overhead: 0.071860%\n"
2020-08-06 05:09:06,375 b"Input #0, mov,mp4,m4a,3gp,3g2,mj2, from '/testdatahdd/datasets/ujjivan/voicecollectionblobcontainer/1566870462_145_146.mp3':\n  Metadata:\n    major_brand     : 3gp4\n    minor_version   : 0\n    compatible_brands: isom3gp4\n    creation_time   : 2019-08-27T01:47:36.000000Z\n    com.android.version: 7.1.1\n  Duration: 00:00:03.14, start: 0.000000, bitrate: 97 kb/s\n    Stream #0:0(eng): Audio: aac (LC) (mp4a / 0x6134706D), 16000 Hz, mono, fltp, 96 kb/s (default)\n    Metadata:\n      creation_time   : 2019-08-27T01:47:36.000000Z\n      handler_name    : SoundHandle\nStream mapping:\n  Stream #0:0 -> #0:0 (aac (native) -> pcm_s16le (native))\nPress [q] to stop, [?] for help\nOutput #0, wav, to '/testdatahdd/datasets/ujjivan/wavs/ta/1566870462_145_146.temp.wav':\n  Metadata:\n    major_brand     : 3gp4\n    minor_version   : 0\n    compatible_brands: isom3gp4\n    com.android.version: 7.1.1\n    ISFT            : Lavf57.83.100\n    Stream #0:0(eng): Audio: pcm_s16le ([1][0][0][0] / 0x0001), 16000 Hz, mono, s16, 256 kb/s (default)\n    Metadata:\n      creation_time   : 2019-08-27T01:47:36.000000Z\n      handler_name    : SoundHandle\n      encoder         : Lavc57.107.100 pcm_s16le\nsize=      98kB time=00:00:03.13 bitrate= 256.2kbits/s speed=1.15e+03x    \nvideo:0kB audio:98kB subtitle:0kB other streams:0kB global headers:0kB muxing overhead: 0.077726%\n"
2020-08-06 05:09:06,945 b"Input #0, mov,mp4,m4a,3gp,3g2,mj2, from '/testdatahdd/datasets/ujjivan/voicecollectionblobcontainer/1567263850_147_146.mp3':\n  Metadata:\n    major_brand     : 3gp4\n    minor_version   : 0\n    compatible_brands: isom3gp4\n    creation_time   : 2019-08-31T15:04:03.000000Z\n    com.android.version: 9\n  Duration: 00:00:03.26, start: 0.000000, bitrate: 103 kb/s\n    Stream #0:0(eng): Audio: aac (LC) (mp4a / 0x6134706D), 16000 Hz, mono, fltp, 96 kb/s (default)\n    Metadata:\n      creation_time   : 2019-08-31T15:04:03.000000Z\n      handler_name    : SoundHandle\nStream mapping:\n  Stream #0:0 -> #0:0 (aac (native) -> pcm_s16le (native))\nPress [q] to stop, [?] for help\nOutput #0, wav, to '/testdatahdd/datasets/ujjivan/wavs/ta/1567263850_147_146.temp.wav':\n  Metadata:\n    major_brand     : 3gp4\n    minor_version   : 0\n    compatible_brands: isom3gp4\n    com.android.version: 9\n    ISFT            : Lavf57.83.100\n    Stream #0:0(eng): Audio: pcm_s16le ([1][0][0][0] / 0x0001), 16000 Hz, mono, s16, 256 kb/s (default)\n    Metadata:\n      creation_time   : 2019-08-31T15:04:03.000000Z\n      handler_name    : SoundHandle\n      encoder         : Lavc57.107.100 pcm_s16le\nsize=     102kB time=00:00:03.26 bitrate= 256.2kbits/s speed=1.25e+03x    \nvideo:0kB audio:102kB subtitle:0kB other streams:0kB global headers:0kB muxing overhead: 0.074678%\n"
2020-08-06 05:09:09,023 b"Input #0, mov,mp4,m4a,3gp,3g2,mj2, from '/testdatahdd/datasets/ujjivan/voicecollectionblobcontainer/1566542776_150_146.mp3':\n  Metadata:\n    major_brand     : 3gp4\n    minor_version   : 0\n    compatible_brands: isom3gp4\n    creation_time   : 2019-08-23T06:46:02.000000Z\n    com.android.version: 9\n  Duration: 00:00:03.33, start: 0.000000, bitrate: 103 kb/s\n    Stream #0:0(eng): Audio: aac (LC) (mp4a / 0x6134706D), 16000 Hz, mono, fltp, 96 kb/s (default)\n    Metadata:\n      creation_time   : 2019-08-23T06:46:02.000000Z\n      handler_name    : SoundHandle\nStream mapping:\n  Stream #0:0 -> #0:0 (aac (native) -> pcm_s16le (native))\nPress [q] to stop, [?] for help\nOutput #0, wav, to '/testdatahdd/datasets/ujjivan/wavs/ta/1566542776_150_146.temp.wav':\n  Metadata:\n    major_brand     : 3gp4\n    minor_version   : 0\n    compatible_brands: isom3gp4\n    com.android.version: 9\n    ISFT            : Lavf57.83.100\n    Stream #0:0(eng): Audio: pcm_s16le ([1][0][0][0] / 0x0001), 16000 Hz, mono, s16, 256 kb/s (default)\n    Metadata:\n      creation_time   : 2019-08-23T06:46:02.000000Z\n      handler_name    : SoundHandle\n      encoder         : Lavc57.107.100 pcm_s16le\nsize=     104kB time=00:00:03.32 bitrate= 256.2kbits/s speed=1.17e+03x    \nvideo:0kB audio:104kB subtitle:0kB other streams:0kB global headers:0kB muxing overhead: 0.073242%\n"
2020-08-06 05:09:10,964 b"Input #0, mov,mp4,m4a,3gp,3g2,mj2, from '/testdatahdd/datasets/ujjivan/voicecollectionblobcontainer/1566546649_152_146.mp3':\n  Metadata:\n    major_brand     : 3gp4\n    minor_version   : 0\n    compatible_brands: isom3gp4\n    creation_time   : 2019-08-23T07:50:38.000000Z\n    com.android.version: 8.1.0\n  Duration: 00:00:03.78, start: 0.000000, bitrate: 102 kb/s\n    Stream #0:0(eng): Audio: aac (LC) (mp4a / 0x6134706D), 16000 Hz, mono, fltp, 96 kb/s (default)\n    Metadata:\n      creation_time   : 2019-08-23T07:50:38.000000Z\n      handler_name    : SoundHandle\nStream mapping:\n  Stream #0:0 -> #0:0 (aac (native) -> pcm_s16le (native))\nPress [q] to stop, [?] for help\nOutput #0, wav, to '/testdatahdd/datasets/ujjivan/wavs/ta/1566546649_152_146.temp.wav':\n  Metadata:\n    major_brand     : 3gp4\n    minor_version   : 0\n    compatible_brands: isom3gp4\n    com.android.version: 8.1.0\n    ISFT            : Lavf57.83.100\n    Stream #0:0(eng): Audio: pcm_s16le ([1][0][0][0] / 0x0001), 16000 Hz, mono, s16, 256 kb/s (default)\n    Metadata:\n      creation_time   : 2019-08-23T07:50:38.000000Z\n      handler_name    : SoundHandle\n      encoder         : Lavc57.107.100 pcm_s16le\nsize=     118kB time=00:00:03.77 bitrate= 256.2kbits/s speed=1.27e+03x    \nvideo:0kB audio:118kB subtitle:0kB other streams:0kB global headers:0kB muxing overhead: 0.064552%\n"
2020-08-06 05:09:13,665 b"Input #0, mov,mp4,m4a,3gp,3g2,mj2, from '/testdatahdd/datasets/ujjivan/voicecollectionblobcontainer/1566643035_154_146.mp3':\n  Metadata:\n    major_brand     : 3gp4\n    minor_version   : 0\n    compatible_brands: isom3gp4\n    creation_time   : 2019-08-24T10:36:08.000000Z\n    com.android.version: 7.1.1\n  Duration: 00:00:04.16, start: 0.000000, bitrate: 97 kb/s\n    Stream #0:0(eng): Audio: aac (LC) (mp4a / 0x6134706D), 16000 Hz, mono, fltp, 96 kb/s (default)\n    Metadata:\n      creation_time   : 2019-08-24T10:36:08.000000Z\n      handler_name    : SoundHandle\nStream mapping:\n  Stream #0:0 -> #0:0 (aac (native) -> pcm_s16le (native))\nPress [q] to stop, [?] for help\nOutput #0, wav, to '/testdatahdd/datasets/ujjivan/wavs/ta/1566643035_154_146.temp.wav':\n  Metadata:\n    major_brand     : 3gp4\n    minor_version   : 0\n    compatible_brands: isom3gp4\n    com.android.version: 7.1.1\n    ISFT            : Lavf57.83.100\n    Stream #0:0(eng): Audio: pcm_s16le ([1][0][0][0] / 0x0001), 16000 Hz, mono, s16, 256 kb/s (default)\n    Metadata:\n      creation_time   : 2019-08-24T10:36:08.000000Z\n      handler_name    : SoundHandle\n      encoder         : Lavc57.107.100 pcm_s16le\nsize=     130kB time=00:00:04.16 bitrate= 256.1kbits/s speed=1.35e+03x    \nvideo:0kB audio:130kB subtitle:0kB other streams:0kB global headers:0kB muxing overhead: 0.058594%\n"
2020-08-06 05:09:15,327 b"Input #0, mov,mp4,m4a,3gp,3g2,mj2, from '/testdatahdd/datasets/ujjivan/voicecollectionblobcontainer/1567927361_155_146.mp3':\n  Metadata:\n    major_brand     : 3gp4\n    minor_version   : 0\n    compatible_brands: isom3gp4\n    creation_time   : 2019-09-08T07:22:32.000000Z\n    com.android.version: 8.1.0\n  Duration: 00:00:03.46, start: 0.000000, bitrate: 103 kb/s\n    Stream #0:0(eng): Audio: aac (LC) (mp4a / 0x6134706D), 16000 Hz, mono, fltp, 96 kb/s (default)\n    Metadata:\n      creation_time   : 2019-09-08T07:22:32.000000Z\n      handler_name    : SoundHandle\nStream mapping:\n  Stream #0:0 -> #0:0 (aac (native) -> pcm_s16le (native))\nPress [q] to stop, [?] for help\nOutput #0, wav, to '/testdatahdd/datasets/ujjivan/wavs/ta/1567927361_155_146.temp.wav':\n  Metadata:\n    major_brand     : 3gp4\n    minor_version   : 0\n    compatible_brands: isom3gp4\n    com.android.version: 8.1.0\n    ISFT            : Lavf57.83.100\n    Stream #0:0(eng): Audio: pcm_s16le ([1][0][0][0] / 0x0001), 16000 Hz, mono, s16, 256 kb/s (default)\n    Metadata:\n      creation_time   : 2019-09-08T07:22:32.000000Z\n      handler_name    : SoundHandle\n      encoder         : Lavc57.107.100 pcm_s16le\nsize=     108kB time=00:00:03.45 bitrate= 256.2kbits/s speed=1.22e+03x    \nvideo:0kB audio:108kB subtitle:0kB other streams:0kB global headers:0kB muxing overhead: 0.070530%\n"
2020-08-06 05:09:16,893 b"Input #0, mov,mp4,m4a,3gp,3g2,mj2, from '/testdatahdd/datasets/ujjivan/voicecollectionblobcontainer/1567002718_156_146.mp3':\n  Metadata:\n    major_brand     : 3gp4\n    minor_version   : 0\n    compatible_brands: isom3gp4\n    creation_time   : 2019-08-28T14:31:50.000000Z\n    com.android.version: 9\n    com.android.manufacturer: motorola\n    com.android.model: moto g(6) plus\n  Duration: 00:00:02.69, start: 0.000000, bitrate: 105 kb/s\n    Stream #0:0(eng): Audio: aac (LC) (mp4a / 0x6134706D), 16000 Hz, mono, fltp, 96 kb/s (default)\n    Metadata:\n      creation_time   : 2019-08-28T14:31:50.000000Z\n      handler_name    : SoundHandle\nStream mapping:\n  Stream #0:0 -> #0:0 (aac (native) -> pcm_s16le (native))\nPress [q] to stop, [?] for help\nOutput #0, wav, to '/testdatahdd/datasets/ujjivan/wavs/ta/1567002718_156_146.temp.wav':\n  Metadata:\n    major_brand     : 3gp4\n    minor_version   : 0\n    compatible_brands: isom3gp4\n    com.android.model: moto g(6) plus\n    com.android.version: 9\n    com.android.manufacturer: motorola\n    ISFT            : Lavf57.83.100\n    Stream #0:0(eng): Audio: pcm_s16le ([1][0][0][0] / 0x0001), 16000 Hz, mono, s16, 256 kb/s (default)\n    Metadata:\n      creation_time   : 2019-08-28T14:31:50.000000Z\n      handler_name    : SoundHandle\n      encoder         : Lavc57.107.100 pcm_s16le\nsize=      84kB time=00:00:02.68 bitrate= 256.2kbits/s speed= 907x    \nvideo:0kB audio:84kB subtitle:0kB other streams:0kB global headers:0kB muxing overhead: 0.090681%\n"
2020-08-06 05:09:17,760 b"Input #0, mov,mp4,m4a,3gp,3g2,mj2, from '/testdatahdd/datasets/ujjivan/voicecollectionblobcontainer/1567597015_158_146.mp3':\n  Metadata:\n    major_brand     : 3gp4\n    minor_version   : 0\n    compatible_brands: isom3gp4\n    creation_time   : 2019-09-04T11:36:47.000000Z\n    com.android.version: 7.0\n  Duration: 00:00:02.82, start: 0.000000, bitrate: 98 kb/s\n    Stream #0:0(eng): Audio: aac (LC) (mp4a / 0x6134706D), 16000 Hz, mono, fltp, 96 kb/s (default)\n    Metadata:\n      creation_time   : 2019-09-04T11:36:47.000000Z\n      handler_name    : SoundHandle\nStream mapping:\n  Stream #0:0 -> #0:0 (aac (native) -> pcm_s16le (native))\nPress [q] to stop, [?] for help\nOutput #0, wav, to '/testdatahdd/datasets/ujjivan/wavs/ta/1567597015_158_146.temp.wav':\n  Metadata:\n    major_brand     : 3gp4\n    minor_version   : 0\n    compatible_brands: isom3gp4\n    com.android.version: 7.0\n    ISFT            : Lavf57.83.100\n    Stream #0:0(eng): Audio: pcm_s16le ([1][0][0][0] / 0x0001), 16000 Hz, mono, s16, 256 kb/s (default)\n    Metadata:\n      creation_time   : 2019-09-04T11:36:47.000000Z\n      handler_name    : SoundHandle\n      encoder         : Lavc57.107.100 pcm_s16le\nsize=      88kB time=00:00:02.81 bitrate= 256.2kbits/s speed=1.15e+03x    \nvideo:0kB audio:88kB subtitle:0kB other streams:0kB global headers:0kB muxing overhead: 0.086559%\n"
2020-08-06 05:09:18,770 b"Input #0, mov,mp4,m4a,3gp,3g2,mj2, from '/testdatahdd/datasets/ujjivan/voicecollectionblobcontainer/1566729261_159_146.mp3':\n  Metadata:\n    major_brand     : 3gp4\n    minor_version   : 0\n    compatible_brands: isom3gp4\n    creation_time   : 2019-08-25T10:34:13.000000Z\n    com.android.version: 7.0\n  Duration: 00:00:02.88, start: 0.000000, bitrate: 98 kb/s\n    Stream #0:0(eng): Audio: aac (LC) (mp4a / 0x6134706D), 16000 Hz, mono, fltp, 96 kb/s (default)\n    Metadata:\n      creation_time   : 2019-08-25T10:34:13.000000Z\n      handler_name    : SoundHandle\nStream mapping:\n  Stream #0:0 -> #0:0 (aac (native) -> pcm_s16le (native))\nPress [q] to stop, [?] for help\nOutput #0, wav, to '/testdatahdd/datasets/ujjivan/wavs/ta/1566729261_159_146.temp.wav':\n  Metadata:\n    major_brand     : 3gp4\n    minor_version   : 0\n    compatible_brands: isom3gp4\n    com.android.version: 7.0\n    ISFT            : Lavf57.83.100\n    Stream #0:0(eng): Audio: pcm_s16le ([1][0][0][0] / 0x0001), 16000 Hz, mono, s16, 256 kb/s (default)\n    Metadata:\n      creation_time   : 2019-08-25T10:34:13.000000Z\n      handler_name    : SoundHandle\n      encoder         : Lavc57.107.100 pcm_s16le\nsize=      90kB time=00:00:02.88 bitrate= 256.2kbits/s speed=1.13e+03x    \nvideo:0kB audio:90kB subtitle:0kB other streams:0kB global headers:0kB muxing overhead: 0.084635%\n"
2020-08-06 05:09:20,565 b"Input #0, mov,mp4,m4a,3gp,3g2,mj2, from '/testdatahdd/datasets/ujjivan/voicecollectionblobcontainer/1569912376_162_146.mp3':\n  Metadata:\n    major_brand     : 3gp4\n    minor_version   : 0\n    compatible_brands: isom3gp4\n    creation_time   : 2019-10-01T06:46:05.000000Z\n    com.android.version: 9\n  Duration: 00:00:03.20, start: 0.000000, bitrate: 104 kb/s\n    Stream #0:0(eng): Audio: aac (LC) (mp4a / 0x6134706D), 16000 Hz, mono, fltp, 96 kb/s (default)\n    Metadata:\n      creation_time   : 2019-10-01T06:46:05.000000Z\n      handler_name    : SoundHandle\nStream mapping:\n  Stream #0:0 -> #0:0 (aac (native) -> pcm_s16le (native))\nPress [q] to stop, [?] for help\nOutput #0, wav, to '/testdatahdd/datasets/ujjivan/wavs/ta/1569912376_162_146.temp.wav':\n  Metadata:\n    major_brand     : 3gp4\n    minor_version   : 0\n    compatible_brands: isom3gp4\n    com.android.version: 9\n    ISFT            : Lavf57.83.100\n    Stream #0:0(eng): Audio: pcm_s16le ([1][0][0][0] / 0x0001), 16000 Hz, mono, s16, 256 kb/s (default)\n    Metadata:\n      creation_time   : 2019-10-01T06:46:05.000000Z\n      handler_name    : SoundHandle\n      encoder         : Lavc57.107.100 pcm_s16le\nsize=     100kB time=00:00:03.20 bitrate= 256.2kbits/s speed=1.22e+03x    \nvideo:0kB audio:100kB subtitle:0kB other streams:0kB global headers:0kB muxing overhead: 0.076172%\n"
2020-08-06 05:09:21,730 b"Input #0, mov,mp4,m4a,3gp,3g2,mj2, from '/testdatahdd/datasets/ujjivan/voicecollectionblobcontainer/1568166781_188_146.mp3':\n  Metadata:\n    major_brand     : 3gp4\n    minor_version   : 0\n    compatible_brands: isom3gp4\n    creation_time   : 2019-09-11T01:48:24.000000Z\n    com.android.version: 9\n  Duration: 00:00:00.64, start: 0.000000, bitrate: 136 kb/s\n    Stream #0:0(eng): Audio: aac (LC) (mp4a / 0x6134706D), 16000 Hz, mono, fltp, 96 kb/s (default)\n    Metadata:\n      creation_time   : 2019-09-11T01:48:24.000000Z\n      handler_name    : SoundHandle\nStream mapping:\n  Stream #0:0 -> #0:0 (aac (native) -> pcm_s16le (native))\nPress [q] to stop, [?] for help\nOutput #0, wav, to '/testdatahdd/datasets/ujjivan/wavs/ta/1568166781_188_146.temp.wav':\n  Metadata:\n    major_brand     : 3gp4\n    minor_version   : 0\n    compatible_brands: isom3gp4\n    com.android.version: 9\n    ISFT            : Lavf57.83.100\n    Stream #0:0(eng): Audio: pcm_s16le ([1][0][0][0] / 0x0001), 16000 Hz, mono, s16, 256 kb/s (default)\n    Metadata:\n      creation_time   : 2019-09-11T01:48:24.000000Z\n      handler_name    : SoundHandle\n      encoder         : Lavc57.107.100 pcm_s16le\nsize=      20kB time=00:00:00.64 bitrate= 257.0kbits/s speed= 493x    \nvideo:0kB audio:20kB subtitle:0kB other streams:0kB global headers:0kB muxing overhead: 0.380859%\n"
2020-08-06 05:09:23,035 b"Input #0, mov,mp4,m4a,3gp,3g2,mj2, from '/testdatahdd/datasets/ujjivan/voicecollectionblobcontainer/1568295432_221_146.mp3':\n  Metadata:\n    major_brand     : 3gp4\n    minor_version   : 0\n    compatible_brands: isom3gp4\n    creation_time   : 2019-09-12T13:37:04.000000Z\n    com.android.version: 9\n  Duration: 00:00:02.30, start: 0.000000, bitrate: 107 kb/s\n    Stream #0:0(eng): Audio: aac (LC) (mp4a / 0x6134706D), 16000 Hz, mono, fltp, 96 kb/s (default)\n    Metadata:\n      creation_time   : 2019-09-12T13:37:04.000000Z\n      handler_name    : SoundHandle\nStream mapping:\n  Stream #0:0 -> #0:0 (aac (native) -> pcm_s16le (native))\nPress [q] to stop, [?] for help\nOutput #0, wav, to '/testdatahdd/datasets/ujjivan/wavs/ta/1568295432_221_146.temp.wav':\n  Metadata:\n    major_brand     : 3gp4\n    minor_version   : 0\n    compatible_brands: isom3gp4\n    com.android.version: 9\n    ISFT            : Lavf57.83.100\n    Stream #0:0(eng): Audio: pcm_s16le ([1][0][0][0] / 0x0001), 16000 Hz, mono, s16, 256 kb/s (default)\n    Metadata:\n      creation_time   : 2019-09-12T13:37:04.000000Z\n      handler_name    : SoundHandle\n      encoder         : Lavc57.107.100 pcm_s16le\nsize=      72kB time=00:00:02.30 bitrate= 256.3kbits/s speed=1.07e+03x    \nvideo:0kB audio:72kB subtitle:0kB other streams:0kB global headers:0kB muxing overhead: 0.105794%\n"
